<!DOCTYPE svg PUBLIC "-//W3C//DTD SVG 1.1//EN" "http://www.w3.org/Graphics/SVG/1.1/DTD/svg11.dtd">
<!-- Uploaded to: SVG Repo, www.svgrepo.com, Transformed by: SVG Repo Mixer Tools -->
<svg fill="#ffffff" width="800px" height="800px" viewBox="-51.2 -51.2 614.40 614.40" xmlns="http://www.w3.org/2000/svg" stroke="#ffffff">
<g id="SVGRepo_bgCarrier" stroke-width="0">
<rect x="-51.2" y="-51.2" width="614.40" height="614.40" rx="307.2" fill="#075985" strokewidth="0"/>
</g>
<g id="SVGRepo_tracerCarrier" stroke-linecap="round" stroke-linejoin="round"/>
<g id="SVGRepo_iconCarrier"> <g id="Climate_change_management"> <path d="M317.38,279.33a6.83,6.83,0,0,1-2.94-5.53V137.61a51,51,0,1,0-102,0V273.8a6.46,6.46,0,0,1-2.6,5.28A91.92,91.92,0,0,0,262.07,445.5h1.37a91.84,91.84,0,0,0,91.83-91.85A92.18,92.18,0,0,0,317.38,279.33Zm-2.12,126.93a73.85,73.85,0,1,1-94.92-112.57,24.53,24.53,0,0,0,10.08-19.89V137.61a33,33,0,1,1,66,0V273.8a25,25,0,0,0,10.36,20.09,74.15,74.15,0,0,1,30.47,59.77A73.29,73.29,0,0,1,315.26,406.26Z"/> <path d="M275.43,307.31V202.62h-24V307.31a48.12,48.12,0,1,0,24,0Z"/> <rect height="16" width="47.67" x="343.62" y="105.39"/> <rect height="16" width="76.87" x="343.62" y="146.96"/> <rect height="16" width="47.67" x="343.62" y="188.53"/> <rect height="16" width="76.87" x="343.62" y="230.09"/> <path d="M185.58,196.53c0-7.62-12.22-12.75-15-19.38-2.85-6.87,2-19.11-3.12-24.28s-17.42-.28-24.29-3.12c-6.62-2.75-11.76-15-19.37-15s-12.75,12.22-19.38,15c-6.86,2.84-19.11-2.06-24.28,3.12s-.28,17.41-3.12,24.28c-2.75,6.63-15,11.76-15,19.38s12.22,12.75,15,19.37C79.9,222.77,75,235,80.18,240.18s17.42.28,24.28,3.12c6.63,2.75,11.76,15,19.38,15s12.75-12.22,19.37-15c6.87-2.84,19.11,2.06,24.29-3.12s.27-17.41,3.12-24.28C173.36,209.28,185.58,204.14,185.58,196.53Zm-61.74,25.63a25.64,25.64,0,1,1,25.64-25.63A25.63,25.63,0,0,1,123.84,222.16Z"/> </g> </g>
</svg>